<?xml version="1.0" encoding="UTF-8" standalone="no"?><svg width="120" height="29" viewBox="0 0 120 29" fill="none" xmlns="http://www.w3.org/2000/svg">
<path d="M5.28498 0.844978V6.12996H0V9.90869H5.28498H10.185V6.12996V0.844978H5.28498Z" fill="white"/>
<path d="M20.3673 9.90875H15.0823H10.186V13.6837V22.269H15.0823V13.6837H20.3673V9.90875Z" fill="white"/>
<path d="M38.3863 5.53875V8.56775H28.7329V5.53875H38.3863ZM31.1162 1.55777H35.0738V17.1571C35.0738 17.6836 35.1539 18.0875 35.3143 18.3687C35.4819 18.6428 35.7006 18.8303 35.9702 18.9313C36.2399 19.0322 36.5387 19.0827 36.8667 19.0827C37.1145 19.0827 37.3404 19.0647 37.5445 19.0286C37.7559 18.9926 37.9162 18.9601 38.0255 18.9313L38.6924 21.9927C38.481 22.0648 38.1786 22.1442 37.785 22.2307C37.3987 22.3173 36.925 22.3677 36.3638 22.3822C35.3726 22.411 34.4798 22.2632 33.6853 21.9386C32.8909 21.6069 32.2605 21.0948 31.794 20.4025C31.3348 19.7102 31.1089 18.8447 31.1162 17.8062V1.55777Z" fill="white"/>
<path d="M48.8405 22.4795C47.2006 22.4795 45.7794 22.1225 44.5768 21.4086C43.3742 20.6946 42.4413 19.6957 41.7781 18.412C41.1222 17.1283 40.7942 15.6282 40.7942 13.9118C40.7942 12.1953 41.1222 10.6917 41.7781 9.40073C42.4413 8.10979 43.3742 7.10734 44.5768 6.39336C45.7794 5.67938 47.2006 5.32239 48.8405 5.32239C50.4804 5.32239 51.9016 5.67938 53.1042 6.39336C54.3067 7.10734 55.236 8.10979 55.8919 9.40073C56.5552 10.6917 56.8868 12.1953 56.8868 13.9118C56.8868 15.6282 56.5552 17.1283 55.8919 18.412C55.236 19.6957 54.3067 20.6946 53.1042 21.4086C51.9016 22.1225 50.4804 22.4795 48.8405 22.4795ZM48.8624 19.3423C49.7515 19.3423 50.4949 19.1007 51.0926 18.6175C51.6902 18.1271 52.1348 17.4709 52.4263 16.6487C52.7252 15.8265 52.8746 14.9106 52.8746 13.901C52.8746 12.8841 52.7252 11.9646 52.4263 11.1424C52.1348 10.313 51.6902 9.65314 51.0926 9.16273C50.4949 8.67232 49.7515 8.42712 48.8624 8.42712C47.9513 8.42712 47.1933 8.67232 46.5884 9.16273C45.9908 9.65314 45.5425 10.313 45.2437 11.1424C44.9522 11.9646 44.8064 12.8841 44.8064 13.901C44.8064 14.9106 44.9522 15.8265 45.2437 16.6487C45.5425 17.4709 45.9908 18.1271 46.5884 18.6175C47.1933 19.1007 47.9513 19.3423 48.8624 19.3423Z" fill="white"/>
<path d="M67.5487 28.7323C66.1275 28.7323 64.9067 28.5411 63.8863 28.1589C62.866 27.7839 62.046 27.2791 61.4265 26.6444C60.807 26.0098 60.377 25.3066 60.1365 24.5349L63.7005 23.6803C63.8608 24.0048 64.094 24.3258 64.4002 24.6431C64.7063 24.9676 65.1181 25.2345 65.6355 25.4436C66.1603 25.66 66.8199 25.7682 67.6143 25.7682C68.7367 25.7682 69.666 25.4977 70.4021 24.9568C71.1382 24.4231 71.5063 23.5433 71.5063 22.3173V19.1693H71.3095C71.1054 19.5731 70.8066 19.9878 70.413 20.4133C70.0267 20.8388 69.5129 21.1958 68.8715 21.4843C68.2375 21.7728 67.4394 21.917 66.4773 21.917C65.1873 21.917 64.0175 21.6177 62.968 21.0191C61.9258 20.4133 61.0949 19.5118 60.4754 18.3146C59.8632 17.1103 59.5571 15.603 59.5571 13.7928C59.5571 11.9682 59.8632 10.4284 60.4754 9.17355C61.0949 7.91147 61.9294 6.95589 62.9789 6.30682C64.0285 5.65053 65.1982 5.32239 66.4883 5.32239C67.4722 5.32239 68.2812 5.48826 68.9153 5.82001C69.5566 6.14455 70.0668 6.5376 70.4458 6.99916C70.8248 7.45351 71.1127 7.88262 71.3095 8.28649H71.5281V5.53875H75.431V22.4254C75.431 23.8462 75.0885 25.0217 74.4034 25.9521C73.7183 26.8824 72.7817 27.5784 71.5937 28.0399C70.4057 28.5015 69.0574 28.7323 67.5487 28.7323ZM67.5815 18.8447C68.4197 18.8447 69.1339 18.6428 69.7243 18.2389C70.3146 17.8351 70.7629 17.2545 71.069 16.4972C71.3751 15.74 71.5281 14.8313 71.5281 13.7711C71.5281 12.7254 71.3751 11.8095 71.069 11.0234C70.7702 10.2373 70.3256 9.6279 69.7352 9.19519C69.1521 8.75526 68.4342 8.5353 67.5815 8.5353C66.6996 8.5353 65.9635 8.76247 65.3731 9.21682C64.7828 9.67117 64.3382 10.295 64.0394 11.0883C63.7406 11.8744 63.5912 12.7687 63.5912 13.7711C63.5912 14.788 63.7406 15.6787 64.0394 16.4432C64.3455 17.2004 64.7937 17.7918 65.3841 18.2173C65.9817 18.6356 66.7142 18.8447 67.5815 18.8447Z" fill="white"/>
<path d="M87.8722 5.53875V8.56775H78.2188V5.53875H87.8722ZM80.6021 1.55777H84.5597V17.1571C84.5597 17.6836 84.6398 18.0875 84.8002 18.3687C84.9678 18.6428 85.1865 18.8303 85.4561 18.9313C85.7258 19.0322 86.0246 19.0827 86.3526 19.0827C86.6004 19.0827 86.8263 19.0647 87.0304 19.0286C87.2418 18.9926 87.4021 18.9601 87.5114 18.9313L88.1783 21.9927C87.967 22.0648 87.6645 22.1442 87.2709 22.2307C86.8846 22.3173 86.4109 22.3677 85.8497 22.3822C84.8585 22.411 83.9657 22.2632 83.1712 21.9386C82.3768 21.6069 81.7464 21.0948 81.2799 20.4025C80.8208 19.7102 80.5948 18.8447 80.6021 17.8062V1.55777Z" fill="white"/>
<path d="M95.5004 12.4189V22.155H91.5428V0H95.4129V8.36221H95.6097C96.0033 7.42466 96.6118 6.68544 97.4354 6.14455C98.2663 5.59644 99.3231 5.32239 100.606 5.32239C101.772 5.32239 102.789 5.56399 103.656 6.04719C104.523 6.53039 105.194 7.23715 105.668 8.16749C106.149 9.09783 106.389 10.2337 106.389 11.5751V22.155H102.432V12.1809C102.432 11.0631 102.14 10.194 101.557 9.57381C100.981 8.94638 100.172 8.63266 99.1299 8.63266C98.4303 8.63266 97.8035 8.78411 97.2496 9.08701C96.7029 9.3827 96.2729 9.81181 95.9595 10.3743C95.6534 10.9369 95.5004 11.6184 95.5004 12.4189Z" fill="white"/>
<path d="M110.423 22.155V5.53875H114.261V8.30812H114.435C114.742 7.34894 115.266 6.60972 116.01 6.09046C116.76 5.56399 117.617 5.30075 118.579 5.30075C118.797 5.30075 119.042 5.31157 119.311 5.33321C119.588 5.34763 119.818 5.37287 120 5.40893V9.01128C119.832 8.95359 119.566 8.9031 119.202 8.85983C118.845 8.80935 118.499 8.78411 118.163 8.78411C117.442 8.78411 116.793 8.93916 116.217 9.24928C115.649 9.55218 115.201 9.97407 114.873 10.515C114.545 11.0559 114.381 11.6797 114.381 12.3865V22.155H110.423Z" fill="white"/>
</svg>
